<mxfile host="app.diagrams.net" modified="2024-10-07T18:27:02.700Z" agent="Mozilla/5.0 (Windows NT 10.0; Win64; x64) AppleWebKit/537.36 (KHTML, like Gecko) Chrome/129.0.0.0 Safari/537.36" etag="Gy7hlrwbqNbQjsV5n_IP" version="23.1.7" type="device">
  <diagram id="R2lEEEUBdFMjLlhIrx00" name="Page-1">
    <mxGraphModel dx="1050" dy="557" grid="1" gridSize="10" guides="1" tooltips="1" connect="1" arrows="1" fold="1" page="1" pageScale="1" pageWidth="850" pageHeight="1100" math="0" shadow="0" extFonts="Permanent Marker^https://fonts.googleapis.com/css?family=Permanent+Marker">
      <root>
        <mxCell id="0" />
        <mxCell id="1" parent="0" />
        <mxCell id="j-TaX7-eoZePxyd_PBUE-1" value="User" style="rounded=0;whiteSpace=wrap;html=1;" vertex="1" parent="1">
          <mxGeometry x="160" y="220" width="80" height="30" as="geometry" />
        </mxCell>
        <mxCell id="j-TaX7-eoZePxyd_PBUE-2" value="userID" style="ellipse;whiteSpace=wrap;html=1;" vertex="1" parent="1">
          <mxGeometry x="30" y="210" width="80" height="40" as="geometry" />
        </mxCell>
        <mxCell id="j-TaX7-eoZePxyd_PBUE-3" value="name" style="ellipse;whiteSpace=wrap;html=1;" vertex="1" parent="1">
          <mxGeometry x="50" y="150" width="80" height="40" as="geometry" />
        </mxCell>
        <mxCell id="j-TaX7-eoZePxyd_PBUE-4" value="email" style="ellipse;whiteSpace=wrap;html=1;" vertex="1" parent="1">
          <mxGeometry x="150" y="115" width="80" height="40" as="geometry" />
        </mxCell>
        <mxCell id="j-TaX7-eoZePxyd_PBUE-5" value="gender" style="ellipse;whiteSpace=wrap;html=1;" vertex="1" parent="1">
          <mxGeometry x="250" y="115" width="80" height="40" as="geometry" />
        </mxCell>
        <mxCell id="j-TaX7-eoZePxyd_PBUE-6" value="age" style="ellipse;whiteSpace=wrap;html=1;" vertex="1" parent="1">
          <mxGeometry x="310" y="150" width="80" height="40" as="geometry" />
        </mxCell>
        <mxCell id="j-TaX7-eoZePxyd_PBUE-7" value="HealthMetrics" style="rounded=0;whiteSpace=wrap;html=1;" vertex="1" parent="1">
          <mxGeometry x="500" y="270" width="100" height="40" as="geometry" />
        </mxCell>
        <mxCell id="j-TaX7-eoZePxyd_PBUE-8" value="metricID" style="ellipse;whiteSpace=wrap;html=1;" vertex="1" parent="1">
          <mxGeometry x="420" y="200" width="80" height="40" as="geometry" />
        </mxCell>
        <mxCell id="j-TaX7-eoZePxyd_PBUE-9" value="userID" style="ellipse;whiteSpace=wrap;html=1;" vertex="1" parent="1">
          <mxGeometry x="430" y="140" width="80" height="40" as="geometry" />
        </mxCell>
        <mxCell id="j-TaX7-eoZePxyd_PBUE-10" value="heartRate" style="ellipse;whiteSpace=wrap;html=1;" vertex="1" parent="1">
          <mxGeometry x="500" y="180" width="80" height="40" as="geometry" />
        </mxCell>
        <mxCell id="j-TaX7-eoZePxyd_PBUE-11" value="bp" style="ellipse;whiteSpace=wrap;html=1;" vertex="1" parent="1">
          <mxGeometry x="520" y="115" width="80" height="40" as="geometry" />
        </mxCell>
        <mxCell id="j-TaX7-eoZePxyd_PBUE-12" value="bodyTemp" style="ellipse;whiteSpace=wrap;html=1;" vertex="1" parent="1">
          <mxGeometry x="680" y="280" width="80" height="40" as="geometry" />
        </mxCell>
        <mxCell id="j-TaX7-eoZePxyd_PBUE-13" value="spo2" style="ellipse;whiteSpace=wrap;html=1;" vertex="1" parent="1">
          <mxGeometry x="680" y="240" width="80" height="40" as="geometry" />
        </mxCell>
        <mxCell id="j-TaX7-eoZePxyd_PBUE-14" value="respiratoryRate" style="ellipse;whiteSpace=wrap;html=1;" vertex="1" parent="1">
          <mxGeometry x="600" y="135" width="100" height="50" as="geometry" />
        </mxCell>
        <mxCell id="j-TaX7-eoZePxyd_PBUE-15" value="glucoseLevel" style="ellipse;whiteSpace=wrap;html=1;" vertex="1" parent="1">
          <mxGeometry x="610" y="190" width="100" height="50" as="geometry" />
        </mxCell>
        <mxCell id="j-TaX7-eoZePxyd_PBUE-16" value="weight" style="ellipse;whiteSpace=wrap;html=1;" vertex="1" parent="1">
          <mxGeometry x="610" y="360" width="80" height="40" as="geometry" />
        </mxCell>
        <mxCell id="j-TaX7-eoZePxyd_PBUE-17" value="height" style="ellipse;whiteSpace=wrap;html=1;" vertex="1" parent="1">
          <mxGeometry x="650" y="320" width="80" height="40" as="geometry" />
        </mxCell>
        <mxCell id="j-TaX7-eoZePxyd_PBUE-18" value="avgSleep" style="ellipse;whiteSpace=wrap;html=1;" vertex="1" parent="1">
          <mxGeometry x="530" y="370" width="80" height="40" as="geometry" />
        </mxCell>
        <mxCell id="j-TaX7-eoZePxyd_PBUE-19" value="entryDate" style="ellipse;whiteSpace=wrap;html=1;" vertex="1" parent="1">
          <mxGeometry x="460" y="330" width="80" height="40" as="geometry" />
        </mxCell>
        <mxCell id="j-TaX7-eoZePxyd_PBUE-20" value="prediction" style="rounded=0;whiteSpace=wrap;html=1;" vertex="1" parent="1">
          <mxGeometry x="110" y="380" width="80" height="30" as="geometry" />
        </mxCell>
        <mxCell id="j-TaX7-eoZePxyd_PBUE-21" value="predictionID" style="ellipse;whiteSpace=wrap;html=1;" vertex="1" parent="1">
          <mxGeometry x="30" y="450" width="80" height="40" as="geometry" />
        </mxCell>
        <mxCell id="j-TaX7-eoZePxyd_PBUE-22" value="metricID" style="ellipse;whiteSpace=wrap;html=1;" vertex="1" parent="1">
          <mxGeometry x="10" y="400" width="80" height="40" as="geometry" />
        </mxCell>
        <mxCell id="j-TaX7-eoZePxyd_PBUE-23" value="healthIssues" style="ellipse;whiteSpace=wrap;html=1;" vertex="1" parent="1">
          <mxGeometry x="110" y="480" width="80" height="40" as="geometry" />
        </mxCell>
        <mxCell id="j-TaX7-eoZePxyd_PBUE-24" value="date" style="ellipse;whiteSpace=wrap;html=1;" vertex="1" parent="1">
          <mxGeometry x="210" y="460" width="80" height="40" as="geometry" />
        </mxCell>
        <mxCell id="j-TaX7-eoZePxyd_PBUE-28" value="" style="endArrow=none;html=1;rounded=0;entryX=0;entryY=0.5;entryDx=0;entryDy=0;exitX=1;exitY=0.5;exitDx=0;exitDy=0;" edge="1" parent="1" source="j-TaX7-eoZePxyd_PBUE-2" target="j-TaX7-eoZePxyd_PBUE-1">
          <mxGeometry width="50" height="50" relative="1" as="geometry">
            <mxPoint x="400" y="320" as="sourcePoint" />
            <mxPoint x="450" y="270" as="targetPoint" />
          </mxGeometry>
        </mxCell>
        <mxCell id="j-TaX7-eoZePxyd_PBUE-29" value="" style="endArrow=none;html=1;rounded=0;entryX=0;entryY=0;entryDx=0;entryDy=0;exitX=0.725;exitY=1.005;exitDx=0;exitDy=0;exitPerimeter=0;" edge="1" parent="1" source="j-TaX7-eoZePxyd_PBUE-3" target="j-TaX7-eoZePxyd_PBUE-1">
          <mxGeometry width="50" height="50" relative="1" as="geometry">
            <mxPoint x="170" y="200" as="sourcePoint" />
            <mxPoint x="220" y="205" as="targetPoint" />
          </mxGeometry>
        </mxCell>
        <mxCell id="j-TaX7-eoZePxyd_PBUE-30" value="" style="endArrow=none;html=1;rounded=0;entryX=0.39;entryY=-0.047;entryDx=0;entryDy=0;exitX=0.305;exitY=1.005;exitDx=0;exitDy=0;exitPerimeter=0;entryPerimeter=0;" edge="1" parent="1" source="j-TaX7-eoZePxyd_PBUE-4" target="j-TaX7-eoZePxyd_PBUE-1">
          <mxGeometry width="50" height="50" relative="1" as="geometry">
            <mxPoint x="180" y="210" as="sourcePoint" />
            <mxPoint x="230" y="215" as="targetPoint" />
          </mxGeometry>
        </mxCell>
        <mxCell id="j-TaX7-eoZePxyd_PBUE-31" value="" style="endArrow=none;html=1;rounded=0;entryX=0.75;entryY=0;entryDx=0;entryDy=0;exitX=0.37;exitY=1.005;exitDx=0;exitDy=0;exitPerimeter=0;" edge="1" parent="1" source="j-TaX7-eoZePxyd_PBUE-5" target="j-TaX7-eoZePxyd_PBUE-1">
          <mxGeometry width="50" height="50" relative="1" as="geometry">
            <mxPoint x="320" y="150" as="sourcePoint" />
            <mxPoint x="240" y="225" as="targetPoint" />
          </mxGeometry>
        </mxCell>
        <mxCell id="j-TaX7-eoZePxyd_PBUE-32" value="" style="endArrow=none;html=1;rounded=0;entryX=1;entryY=0.5;entryDx=0;entryDy=0;exitX=0;exitY=0.5;exitDx=0;exitDy=0;" edge="1" parent="1" source="j-TaX7-eoZePxyd_PBUE-6" target="j-TaX7-eoZePxyd_PBUE-1">
          <mxGeometry width="50" height="50" relative="1" as="geometry">
            <mxPoint x="200" y="230" as="sourcePoint" />
            <mxPoint x="250" y="235" as="targetPoint" />
          </mxGeometry>
        </mxCell>
        <mxCell id="j-TaX7-eoZePxyd_PBUE-33" value="" style="endArrow=none;html=1;rounded=0;exitX=1;exitY=0.5;exitDx=0;exitDy=0;" edge="1" parent="1" source="j-TaX7-eoZePxyd_PBUE-21" target="j-TaX7-eoZePxyd_PBUE-20">
          <mxGeometry width="50" height="50" relative="1" as="geometry">
            <mxPoint x="210" y="240" as="sourcePoint" />
            <mxPoint x="260" y="245" as="targetPoint" />
          </mxGeometry>
        </mxCell>
        <mxCell id="j-TaX7-eoZePxyd_PBUE-34" value="" style="endArrow=none;html=1;rounded=0;exitX=0.975;exitY=0.305;exitDx=0;exitDy=0;exitPerimeter=0;entryX=0;entryY=0.5;entryDx=0;entryDy=0;" edge="1" parent="1" source="j-TaX7-eoZePxyd_PBUE-22" target="j-TaX7-eoZePxyd_PBUE-20">
          <mxGeometry width="50" height="50" relative="1" as="geometry">
            <mxPoint x="220" y="250" as="sourcePoint" />
            <mxPoint x="170" y="420" as="targetPoint" />
          </mxGeometry>
        </mxCell>
        <mxCell id="j-TaX7-eoZePxyd_PBUE-35" value="" style="endArrow=none;html=1;rounded=0;exitX=0.635;exitY=0.075;exitDx=0;exitDy=0;exitPerimeter=0;" edge="1" parent="1" source="j-TaX7-eoZePxyd_PBUE-23" target="j-TaX7-eoZePxyd_PBUE-20">
          <mxGeometry width="50" height="50" relative="1" as="geometry">
            <mxPoint x="230" y="260" as="sourcePoint" />
            <mxPoint x="280" y="265" as="targetPoint" />
          </mxGeometry>
        </mxCell>
        <mxCell id="j-TaX7-eoZePxyd_PBUE-36" value="" style="endArrow=none;html=1;rounded=0;entryX=1;entryY=1;entryDx=0;entryDy=0;exitX=0;exitY=0;exitDx=0;exitDy=0;" edge="1" parent="1" source="j-TaX7-eoZePxyd_PBUE-24" target="j-TaX7-eoZePxyd_PBUE-20">
          <mxGeometry width="50" height="50" relative="1" as="geometry">
            <mxPoint x="240" y="270" as="sourcePoint" />
            <mxPoint x="290" y="275" as="targetPoint" />
          </mxGeometry>
        </mxCell>
        <mxCell id="j-TaX7-eoZePxyd_PBUE-37" value="" style="endArrow=none;html=1;rounded=0;entryX=0;entryY=0;entryDx=0;entryDy=0;exitX=0.695;exitY=0.955;exitDx=0;exitDy=0;exitPerimeter=0;" edge="1" parent="1" source="j-TaX7-eoZePxyd_PBUE-8" target="j-TaX7-eoZePxyd_PBUE-7">
          <mxGeometry width="50" height="50" relative="1" as="geometry">
            <mxPoint x="250" y="280" as="sourcePoint" />
            <mxPoint x="300" y="285" as="targetPoint" />
          </mxGeometry>
        </mxCell>
        <mxCell id="j-TaX7-eoZePxyd_PBUE-38" value="" style="endArrow=none;html=1;rounded=0;entryX=0.25;entryY=0;entryDx=0;entryDy=0;exitX=1;exitY=1;exitDx=0;exitDy=0;" edge="1" parent="1" source="j-TaX7-eoZePxyd_PBUE-9" target="j-TaX7-eoZePxyd_PBUE-7">
          <mxGeometry width="50" height="50" relative="1" as="geometry">
            <mxPoint x="260" y="290" as="sourcePoint" />
            <mxPoint x="310" y="295" as="targetPoint" />
          </mxGeometry>
        </mxCell>
        <mxCell id="j-TaX7-eoZePxyd_PBUE-39" value="" style="endArrow=none;html=1;rounded=0;entryX=0.41;entryY=-0.015;entryDx=0;entryDy=0;entryPerimeter=0;" edge="1" parent="1" source="j-TaX7-eoZePxyd_PBUE-10" target="j-TaX7-eoZePxyd_PBUE-7">
          <mxGeometry width="50" height="50" relative="1" as="geometry">
            <mxPoint x="270" y="300" as="sourcePoint" />
            <mxPoint x="320" y="305" as="targetPoint" />
          </mxGeometry>
        </mxCell>
        <mxCell id="j-TaX7-eoZePxyd_PBUE-40" value="" style="endArrow=none;html=1;rounded=0;entryX=0.682;entryY=0.005;entryDx=0;entryDy=0;exitX=0.5;exitY=1;exitDx=0;exitDy=0;entryPerimeter=0;" edge="1" parent="1" source="j-TaX7-eoZePxyd_PBUE-11" target="j-TaX7-eoZePxyd_PBUE-7">
          <mxGeometry width="50" height="50" relative="1" as="geometry">
            <mxPoint x="280" y="310" as="sourcePoint" />
            <mxPoint x="330" y="315" as="targetPoint" />
          </mxGeometry>
        </mxCell>
        <mxCell id="j-TaX7-eoZePxyd_PBUE-41" value="" style="endArrow=none;html=1;rounded=0;entryX=0.858;entryY=-0.015;entryDx=0;entryDy=0;exitX=0;exitY=1;exitDx=0;exitDy=0;entryPerimeter=0;" edge="1" parent="1" source="j-TaX7-eoZePxyd_PBUE-14" target="j-TaX7-eoZePxyd_PBUE-7">
          <mxGeometry width="50" height="50" relative="1" as="geometry">
            <mxPoint x="290" y="320" as="sourcePoint" />
            <mxPoint x="340" y="325" as="targetPoint" />
          </mxGeometry>
        </mxCell>
        <mxCell id="j-TaX7-eoZePxyd_PBUE-42" value="" style="endArrow=none;html=1;rounded=0;entryX=1;entryY=0;entryDx=0;entryDy=0;" edge="1" parent="1" source="j-TaX7-eoZePxyd_PBUE-15" target="j-TaX7-eoZePxyd_PBUE-7">
          <mxGeometry width="50" height="50" relative="1" as="geometry">
            <mxPoint x="300" y="330" as="sourcePoint" />
            <mxPoint x="350" y="335" as="targetPoint" />
          </mxGeometry>
        </mxCell>
        <mxCell id="j-TaX7-eoZePxyd_PBUE-43" value="" style="endArrow=none;html=1;rounded=0;entryX=1;entryY=0.5;entryDx=0;entryDy=0;exitX=0;exitY=1;exitDx=0;exitDy=0;" edge="1" parent="1" source="j-TaX7-eoZePxyd_PBUE-13" target="j-TaX7-eoZePxyd_PBUE-7">
          <mxGeometry width="50" height="50" relative="1" as="geometry">
            <mxPoint x="310" y="340" as="sourcePoint" />
            <mxPoint x="360" y="345" as="targetPoint" />
          </mxGeometry>
        </mxCell>
        <mxCell id="j-TaX7-eoZePxyd_PBUE-44" value="" style="endArrow=none;html=1;rounded=0;entryX=1;entryY=0.75;entryDx=0;entryDy=0;" edge="1" parent="1" source="j-TaX7-eoZePxyd_PBUE-12" target="j-TaX7-eoZePxyd_PBUE-7">
          <mxGeometry width="50" height="50" relative="1" as="geometry">
            <mxPoint x="320" y="350" as="sourcePoint" />
            <mxPoint x="370" y="355" as="targetPoint" />
          </mxGeometry>
        </mxCell>
        <mxCell id="j-TaX7-eoZePxyd_PBUE-45" value="" style="endArrow=none;html=1;rounded=0;entryX=0.75;entryY=1;entryDx=0;entryDy=0;exitX=0;exitY=0.5;exitDx=0;exitDy=0;" edge="1" parent="1" source="j-TaX7-eoZePxyd_PBUE-17" target="j-TaX7-eoZePxyd_PBUE-7">
          <mxGeometry width="50" height="50" relative="1" as="geometry">
            <mxPoint x="720" y="350" as="sourcePoint" />
            <mxPoint x="380" y="365" as="targetPoint" />
          </mxGeometry>
        </mxCell>
        <mxCell id="j-TaX7-eoZePxyd_PBUE-46" value="" style="endArrow=none;html=1;rounded=0;entryX=0.5;entryY=1;entryDx=0;entryDy=0;exitX=0;exitY=0;exitDx=0;exitDy=0;" edge="1" parent="1" source="j-TaX7-eoZePxyd_PBUE-16" target="j-TaX7-eoZePxyd_PBUE-7">
          <mxGeometry width="50" height="50" relative="1" as="geometry">
            <mxPoint x="340" y="370" as="sourcePoint" />
            <mxPoint x="390" y="375" as="targetPoint" />
          </mxGeometry>
        </mxCell>
        <mxCell id="j-TaX7-eoZePxyd_PBUE-47" value="" style="endArrow=none;html=1;rounded=0;entryX=0.25;entryY=1;entryDx=0;entryDy=0;exitX=0.5;exitY=0;exitDx=0;exitDy=0;" edge="1" parent="1" source="j-TaX7-eoZePxyd_PBUE-18" target="j-TaX7-eoZePxyd_PBUE-7">
          <mxGeometry width="50" height="50" relative="1" as="geometry">
            <mxPoint x="350" y="380" as="sourcePoint" />
            <mxPoint x="400" y="385" as="targetPoint" />
          </mxGeometry>
        </mxCell>
        <mxCell id="j-TaX7-eoZePxyd_PBUE-48" value="" style="endArrow=none;html=1;rounded=0;entryX=0;entryY=1;entryDx=0;entryDy=0;exitX=0.5;exitY=0;exitDx=0;exitDy=0;" edge="1" parent="1" source="j-TaX7-eoZePxyd_PBUE-19" target="j-TaX7-eoZePxyd_PBUE-7">
          <mxGeometry width="50" height="50" relative="1" as="geometry">
            <mxPoint x="360" y="390" as="sourcePoint" />
            <mxPoint x="410" y="395" as="targetPoint" />
          </mxGeometry>
        </mxCell>
        <mxCell id="j-TaX7-eoZePxyd_PBUE-58" style="edgeStyle=orthogonalEdgeStyle;rounded=0;orthogonalLoop=1;jettySize=auto;html=1;entryX=0.75;entryY=1;entryDx=0;entryDy=0;" edge="1" parent="1" source="j-TaX7-eoZePxyd_PBUE-53" target="j-TaX7-eoZePxyd_PBUE-1">
          <mxGeometry relative="1" as="geometry" />
        </mxCell>
        <mxCell id="j-TaX7-eoZePxyd_PBUE-53" value="input" style="rhombus;whiteSpace=wrap;html=1;" vertex="1" parent="1">
          <mxGeometry x="320" y="250" width="80" height="50" as="geometry" />
        </mxCell>
        <mxCell id="j-TaX7-eoZePxyd_PBUE-56" value="" style="endArrow=none;html=1;rounded=0;entryX=0;entryY=0.5;entryDx=0;entryDy=0;exitX=1;exitY=0.5;exitDx=0;exitDy=0;" edge="1" parent="1" source="j-TaX7-eoZePxyd_PBUE-53" target="j-TaX7-eoZePxyd_PBUE-7">
          <mxGeometry width="50" height="50" relative="1" as="geometry">
            <mxPoint x="400" y="320" as="sourcePoint" />
            <mxPoint x="450" y="270" as="targetPoint" />
          </mxGeometry>
        </mxCell>
        <mxCell id="j-TaX7-eoZePxyd_PBUE-60" value="" style="endArrow=classic;startArrow=classic;html=1;rounded=0;exitX=0.25;exitY=0;exitDx=0;exitDy=0;entryX=0.25;entryY=1;entryDx=0;entryDy=0;" edge="1" parent="1" source="j-TaX7-eoZePxyd_PBUE-20" target="j-TaX7-eoZePxyd_PBUE-1">
          <mxGeometry width="50" height="50" relative="1" as="geometry">
            <mxPoint x="400" y="320" as="sourcePoint" />
            <mxPoint x="450" y="270" as="targetPoint" />
          </mxGeometry>
        </mxCell>
        <mxCell id="j-TaX7-eoZePxyd_PBUE-61" value="Model" style="rounded=0;whiteSpace=wrap;html=1;" vertex="1" parent="1">
          <mxGeometry x="330" y="390" width="80" height="30" as="geometry" />
        </mxCell>
        <mxCell id="j-TaX7-eoZePxyd_PBUE-62" value="id" style="ellipse;whiteSpace=wrap;html=1;" vertex="1" parent="1">
          <mxGeometry x="310" y="490" width="80" height="40" as="geometry" />
        </mxCell>
        <mxCell id="j-TaX7-eoZePxyd_PBUE-63" value="type" style="ellipse;whiteSpace=wrap;html=1;" vertex="1" parent="1">
          <mxGeometry x="400" y="480" width="80" height="40" as="geometry" />
        </mxCell>
        <mxCell id="j-TaX7-eoZePxyd_PBUE-64" value="accurace" style="ellipse;whiteSpace=wrap;html=1;" vertex="1" parent="1">
          <mxGeometry x="450" y="420" width="80" height="40" as="geometry" />
        </mxCell>
        <mxCell id="j-TaX7-eoZePxyd_PBUE-67" value="" style="endArrow=none;html=1;rounded=0;exitX=0.5;exitY=0;exitDx=0;exitDy=0;entryX=0.25;entryY=1;entryDx=0;entryDy=0;" edge="1" parent="1" source="j-TaX7-eoZePxyd_PBUE-62" target="j-TaX7-eoZePxyd_PBUE-61">
          <mxGeometry width="50" height="50" relative="1" as="geometry">
            <mxPoint x="690" y="655" as="sourcePoint" />
            <mxPoint x="381" y="455" as="targetPoint" />
          </mxGeometry>
        </mxCell>
        <mxCell id="j-TaX7-eoZePxyd_PBUE-68" value="" style="endArrow=none;html=1;rounded=0;entryX=0.5;entryY=1;entryDx=0;entryDy=0;exitX=0.5;exitY=0;exitDx=0;exitDy=0;" edge="1" parent="1" source="j-TaX7-eoZePxyd_PBUE-63" target="j-TaX7-eoZePxyd_PBUE-61">
          <mxGeometry width="50" height="50" relative="1" as="geometry">
            <mxPoint x="460" y="535" as="sourcePoint" />
            <mxPoint x="510" y="540" as="targetPoint" />
          </mxGeometry>
        </mxCell>
        <mxCell id="j-TaX7-eoZePxyd_PBUE-69" value="" style="endArrow=none;html=1;rounded=0;entryX=1;entryY=0.5;entryDx=0;entryDy=0;exitX=0;exitY=0;exitDx=0;exitDy=0;" edge="1" parent="1" source="j-TaX7-eoZePxyd_PBUE-64" target="j-TaX7-eoZePxyd_PBUE-61">
          <mxGeometry width="50" height="50" relative="1" as="geometry">
            <mxPoint x="470" y="545" as="sourcePoint" />
            <mxPoint x="520" y="550" as="targetPoint" />
          </mxGeometry>
        </mxCell>
        <mxCell id="j-TaX7-eoZePxyd_PBUE-72" value="" style="endArrow=classic;html=1;rounded=0;exitX=0;exitY=0.75;exitDx=0;exitDy=0;entryX=0.63;entryY=-0.06;entryDx=0;entryDy=0;entryPerimeter=0;" edge="1" parent="1" source="j-TaX7-eoZePxyd_PBUE-7" target="j-TaX7-eoZePxyd_PBUE-61">
          <mxGeometry width="50" height="50" relative="1" as="geometry">
            <mxPoint x="400" y="420" as="sourcePoint" />
            <mxPoint x="450" y="370" as="targetPoint" />
          </mxGeometry>
        </mxCell>
        <mxCell id="j-TaX7-eoZePxyd_PBUE-73" value="" style="endArrow=classic;html=1;rounded=0;exitX=0;exitY=0.5;exitDx=0;exitDy=0;entryX=1;entryY=0.5;entryDx=0;entryDy=0;" edge="1" parent="1" source="j-TaX7-eoZePxyd_PBUE-61" target="j-TaX7-eoZePxyd_PBUE-20">
          <mxGeometry width="50" height="50" relative="1" as="geometry">
            <mxPoint x="400" y="420" as="sourcePoint" />
            <mxPoint x="450" y="370" as="targetPoint" />
          </mxGeometry>
        </mxCell>
      </root>
    </mxGraphModel>
  </diagram>
</mxfile>
